<?xml version="1.0" encoding="UTF-8"?>
<svg id="Layer_2" data-name="Layer 2" xmlns="http://www.w3.org/2000/svg" viewBox="0 0 502.36 502.36">
  <defs>
    <style>
      .cls-1 {
        fill: #494b48;
      }

      .cls-1, .cls-2, .cls-3, .cls-4 {
        stroke: #000;
        stroke-miterlimit: 10;
      }

      .cls-2 {
        fill: #acd082;
      }

      .cls-3 {
        fill: #a4e88d;
      }

      .cls-4 {
        fill: #f8f0f0;
      }
    </style>
  </defs>
  <path class="cls-2" d="M31.35,171.96s-7.74-1.8-14.96,6.8-7.38,87.75-5.79,114.92c1.54,26.4,6.58,60.3,13.39,67.65l31.11,6.14s-19.83-76.21-14.99-105.24-8.77-90.27-8.77-90.27Z"/>
  <path class="cls-2" d="M466.9,171.96s7.74-1.8,14.96,6.8,7.38,87.75,5.79,114.92c-1.54,26.4-6.58,60.3-13.39,67.65l-31.11,6.14s17.94-77.02,13.1-106.05c-4.84-29.03,10.65-89.46,10.65-89.46Z"/>
  <path class="cls-4" d="M397.61,97.35c22.22,34.57,20.22,62.24,50.95,127.55,33.7,71.62,4.86,150.63-32.21,186.92-38.41,37.6-90.76,73.79-168.38,73.79s-135.28-33.87-172.38-79.03-51.76-122.32-26.1-187.04c25.66-64.72,20.77-75.58,51.32-123.85,0,0,42.28-77.41,148.98-77.41s147.81,79.07,147.81,79.07Z"/>
  <path class="cls-1" d="M80.84,244.09c-13.71,17.74-15.73,78.23,1.61,106.05s42.34,49.59,69.35,55.65c25.81,10.89,50.81,4.84,50.81,4.84l16.94-27.82,58.47.4,17.34,27.42s40.32,6.05,66.53-8.87,37.9-25.81,56.05-56.45,11.29-83.87,1.61-101.61-50.81-93.15-50.81-93.15H109.47s-14.92,75.81-28.63,93.55Z"/>
  <path class="cls-2" d="M64.71,98.12s-24.6,35.89-33.87,68.55-7.66,84.52-7.66,84.52l93.15,2.18,75-49.19,115.73,1.21,78.23,47.98h89.52s-.71-55.42-9.68-88.31c-7.26-26.61-31.85-66.94-31.85-66.94l-112.9-2.42-20.16,12.1h-106.45l-15.32-12.1-113.71,2.42Z"/>
  <ellipse class="cls-3" cx="140.82" cy="281.33" rx="29.91" ry="74.17"/>
  <ellipse class="cls-3" cx="356.5" cy="281.33" rx="29.91" ry="74.17"/>
  <path class="cls-3" d="M271.44,352.03c0,4.14-10.15,23.76-22.4,23.76s-22.4-19.38-22.4-23.76,10.03-5.76,22.4-5.76,22.4,1.62,22.4,5.76Z"/>
</svg>